<svg width="1920" height="936" viewBox="0 0 1920 936" fill="none" xmlns="http://www.w3.org/2000/svg">
<path d="M1861.33 373.334C1844.27 375.466 1795.2 360.534 1778.13 352.534C1761.07 344.534 1677.87 403.2 1677.87 403.2L1628.8 430.934C1628.8 430.934 1607.47 448 1588.27 454.4C1569.07 460.8 1526.4 439.466 1520 430.934C1513.6 422.4 1500.8 407.466 1485.87 394.666C1470.93 381.866 1421.87 364.8 1411.2 352.534C1400.53 340.266 1374.93 326.4 1370.67 317.866C1366.4 309.334 1349.33 288 1340.8 285.866C1332.27 283.734 1287.47 302.934 1287.47 302.934C1287.47 302.934 1253.33 328.534 1242.67 337.066C1232 345.6 1206.4 356.266 1197.87 352.534C1189.33 348.8 1163.73 379.734 1163.73 379.734C1163.73 379.734 1153.07 401.066 1144.53 413.866C1136 426.666 1116.8 437.334 1108.27 443.734C1099.73 450.134 1061.33 486.4 1061.33 486.4C1061.33 486.4 1061.33 486.4 1052.8 496C1044.27 505.6 1020.8 496 1020.8 496C1020.8 496 984.534 490.666 973.866 486.4C963.2 482.134 905.6 482.134 886.4 477.866C867.2 473.6 850.134 477.866 850.134 477.866L839.466 454.4C839.466 454.4 824.534 439.466 813.866 430.934C803.2 422.4 758.4 405.334 758.4 405.334C758.4 405.334 713.6 379.734 709.334 366.934C705.066 354.134 653.866 326.4 653.866 326.4C653.866 326.4 594.134 298.666 585.6 292.266C577.066 285.866 555.734 249.6 555.734 249.6L489.6 224L436.266 204.8L348.8 238.934L272 279.466L237.868 307.2L158.932 356.266L112 396.8L99.2 430.934L62.9325 452.266L0 477.866V1136H1920V422.4C1920 422.4 1878.4 371.2 1861.33 373.334Z" fill="#50A1AB"/>
<path d="M818.134 465.478C805.334 465.066 788.266 462.934 788.266 462.934L758.4 460.8C758.4 460.8 760.534 428.8 749.866 430.934C739.2 433.066 737.066 443.734 728.534 430.934C720 418.134 734.934 430.934 720 418.134C705.066 405.334 690.134 396.8 690.134 396.8C690.134 396.8 694.4 392.534 690.134 386.134C685.866 379.734 660.266 356.266 660.266 356.266H636.8L598.4 337.066L581.334 324.266C581.334 324.266 560 294.4 551.466 288C542.934 281.6 534.4 270.934 534.4 270.934C534.4 270.934 513.066 251.734 504.534 247.466C496 243.2 459.734 232.534 459.734 232.534L434.134 230.4L468.266 315.734C468.266 315.734 496 360.534 504.534 371.2C513.066 381.866 525.866 409.6 538.666 420.266C551.466 430.934 598.4 445.866 598.4 445.866C598.4 445.866 615.466 456.534 638.934 467.2C662.4 477.866 673.066 494.934 688 499.2C702.934 503.466 711.466 505.6 734.934 505.6C758.4 505.6 784 494.934 792.534 499.2C801.066 503.466 823.821 505.6 823.821 505.6L818.134 481.066C818.134 481.066 830.934 465.894 818.134 465.478" fill="#6AC1C6"/>
<path d="M1212.8 386.134L1174.4 430.934L1155.2 450.134L1131.73 481.066L1086.93 505.6C1086.93 505.6 1123.2 497.066 1153.07 496C1182.93 494.934 1193.6 481.066 1193.6 481.066C1193.6 481.066 1232 471.466 1244.8 465.066C1257.6 458.666 1257.6 430.934 1257.6 430.934C1257.6 430.934 1259.73 405.334 1274.67 409.066C1289.6 412.8 1296 358.4 1296 358.4V337.066L1244.8 358.4L1212.8 386.134Z" fill="#6AC1C6"/>
<path d="M1756.8 368L1726.93 403.2L1690.67 430.934L1641.6 460.8L1588.27 471.466L1598.93 481.066C1598.93 481.066 1650.13 475.734 1665.07 481.066C1680 486.4 1703.47 460.8 1723.73 460.8C1744 460.8 1748.27 437.334 1750.4 430.934C1752.53 424.534 1761.07 418.134 1776 414.4C1790.93 410.666 1805.87 392.534 1805.87 392.534L1790.93 368H1756.8Z" fill="#6AC1C6"/>
<path d="M1752.53 567.466C1744 567.466 1673.6 620.8 1673.6 620.8L1552 627.2L1449.6 670.4C1449.6 670.4 1317.33 640 1310.93 635.734C1304.53 631.466 1242.67 612.266 1208.53 612.266C1174.4 612.266 1161.6 620.8 1144.53 631.466C1127.47 642.134 1106.13 646.4 1106.13 646.4C1106.13 646.4 1057.07 610.134 1052.8 595.2C1048.53 580.266 1031.47 567.466 1020.8 558.934C1010.13 550.4 976 520.534 960 503.466C944 486.4 941.866 467.2 941.866 467.2L903.466 430.934L839.466 454.4C839.466 454.4 784 482.134 769.066 495.603C754.134 509.072 675.2 494.934 668.8 496C662.4 497.066 600.534 499.2 594.134 496C587.734 492.8 566.4 509.866 557.866 514.134C549.334 518.4 525.866 539.734 521.6 546.134C517.334 552.534 496 567.466 496 567.466L449.066 608L404.266 622.934L374.4 646.4C374.4 646.4 338.134 669.866 323.2 670.4C308.268 670.934 278.4 682.666 278.4 682.666L182.4 704L101.332 657.066H56.5325L0 608V1136H1920V465.066C1920 465.066 1850.67 522.666 1837.87 531.2C1825.07 539.734 1761.07 567.466 1752.53 567.466Z" fill="#3C7982"/>
<path d="M1844.27 548.266C1837.87 552.534 1822.93 556.8 1805.87 567.466C1788.8 578.134 1799.47 578.134 1786.67 593.066C1773.87 608 1752.53 608 1752.53 608L1707.73 635.734C1707.73 635.734 1677.87 654.934 1680 661.334C1682.13 667.734 1741.87 646.4 1741.87 646.4L1784.53 635.734L1852.8 612.266C1852.8 612.266 1869.87 593.066 1876.27 586.666C1882.67 580.266 1908.27 552.534 1908.27 552.534V505.6L1880.53 526.934C1880.53 526.934 1850.67 544 1844.27 548.266" fill="#539DA6"/>
<path d="M156.8 716.563C156.8 716.563 126.932 689.066 116.268 681.482C105.6 673.898 86.4 682.666 77.8675 681.482C69.3325 680.298 39.4675 682.666 33.0675 681.482C26.6675 680.298 13.8675 646.4 13.8675 646.4V681.482L22.4 701.629L37.3325 716.563C37.3325 716.563 67.2 740.266 77.8675 742.4C88.5325 744.534 94.9325 744.534 116.268 753.066C137.6 761.6 137.6 753.066 150.4 753.066C163.2 753.066 188.8 725.334 188.8 725.334C188.8 725.334 188.8 725.334 180.268 716.563C171.733 707.795 156.8 716.563 156.8 716.563" fill="#539DA6"/>
<path d="M823.821 496L809.6 509.866L775.466 530.445C775.466 530.445 749.866 533.334 743.466 537.6C737.066 541.866 692.266 522.666 692.266 522.666H587.734L566.4 552.534L538.666 567.734C538.666 567.734 506.666 599.466 489.6 612.266C472.534 625.066 406.4 676.266 423.466 670.4C440.534 664.534 449.066 661.334 464 662.531C478.934 663.728 540.8 625.066 540.8 625.066L660.266 595.2L728.534 563.2L805.334 556.8L871.466 520.534L901.334 465.066L850.134 475.734L823.821 496Z" fill="#539DA6"/>
<path d="M1840 642.134C1833.6 657.066 1803.73 704 1780.27 712.445C1756.8 720.883 1697.07 665.6 1684.27 642.134C1671.47 618.666 1654.4 567.466 1648 561.066C1641.6 554.666 1584 529.066 1584 529.066L1547.73 509.866L1485.87 552.534L1432.53 578.134C1432.53 578.134 1342.93 573.866 1325.87 573.866C1308.8 573.866 1255.47 588.8 1244.8 590.934C1234.13 593.066 1180.8 629.334 1172.27 637.866C1163.73 646.4 1089.07 667.734 1080.53 670.4C1072 673.066 984.534 701.866 984.534 701.866L920.534 757.334L884.266 783.466C884.266 783.466 824.534 836.265 820.266 846.934C816 857.6 745.6 891.734 730.666 900.265C715.734 908.8 649.6 919.465 645.334 913.065C641.066 906.665 606.934 874.665 606.934 874.665C606.934 874.665 553.6 838.4 551.466 832C549.334 825.6 530.134 770.134 530.134 770.134L470.4 701.866L390.701 633.594L344.534 601.6L301.868 620.8L244.268 644.266L195.2 716.8C195.2 716.8 167.468 746.666 161.068 755.2C154.668 763.734 137.6 776.534 131.2 783.466C124.8 790.4 84.2675 808.534 80 814.934C75.7325 821.334 48 864 48 864L0 913.065V1136H1920V586.666L1878.4 614.4C1878.4 614.4 1846.4 627.2 1840 642.134Z" fill="#21393E"/>
<path d="M606.934 906.665L557.866 874.665C557.866 874.665 542.934 849.065 540.8 838.4C538.666 827.734 528 810.666 528 810.666C528 810.666 496 778.666 483.2 756.861C470.4 735.053 459.734 733.866 459.734 733.866L420.678 689.066C420.678 689.066 397.866 680.534 393.6 670.867C389.334 661.2 374.4 646.4 374.4 646.4L327.466 625.066L289.068 654.935C289.068 654.935 289.068 654.935 265.6 662.531C242.132 670.128 257.068 672 250.668 670.867C244.268 669.731 259.2 686.935 259.2 686.935C259.2 686.935 259.2 695.466 259.2 710.4C259.2 725.334 259.2 710.4 263.468 721.066C267.732 731.734 301.868 733.866 301.868 733.866L316.8 740.266C316.8 740.266 336 750.934 340.266 756.861C344.534 762.784 357.334 808.534 363.734 812.8C370.134 817.065 389.334 822.934 389.334 822.934L446.934 844.8L455.466 885.334C455.466 885.334 478.934 893.865 560 925.865C641.066 957.865 628.979 932.265 628.979 932.265L606.934 906.665" fill="#427982"/>
<path d="M1908.27 662.531C1908.27 662.531 1920 616.534 1908.27 616.534C1896.53 616.534 1884.8 646.4 1884.8 646.4L1863.47 662.531C1863.47 662.531 1854.93 665.6 1850.67 670.867C1846.4 676.131 1850.67 701.629 1850.67 701.629L1831.47 710.4L1814.4 731.734C1814.4 731.734 1795.2 742.4 1780.27 756.861C1765.33 771.318 1805.87 763.283 1805.87 763.283L1838.34 742.4C1838.34 742.4 1859.2 736 1867.73 733.866C1876.27 731.734 1891.2 718.934 1908.27 710.4C1925.33 701.866 1908.27 699.734 1908.27 689.91C1908.27 680.083 1908.27 662.531 1908.27 662.531" fill="#427982"/>
<path d="M1588.27 567.965L1573.33 537.6L1545.6 539.734L1500.8 593.066L1468.8 616.534H1398.4L1364.27 601.6C1364.27 601.6 1321.6 597.334 1296 603.734C1270.4 610.134 1255.47 618.666 1255.47 618.666L1232 625.066L1182.93 662.531L1153.07 691.021C1153.07 691.021 1083.31 699.44 1074.13 701.629C1063.94 704.058 1029.33 701.629 1029.33 701.629L997.334 765.51C997.334 765.51 1005.87 753.066 1020.8 746.666C1035.73 740.266 1074.13 742.4 1074.13 742.4H1144.53C1144.53 742.4 1185.07 742.4 1234.13 742.4C1283.2 742.4 1285.33 727.466 1285.33 727.466L1331.2 718.934L1362.13 691.021H1402.67H1464.53L1511.47 662.531L1528.53 646.4H1552C1552 646.4 1584 631.466 1588.27 616.534C1592.53 601.6 1577.6 595.2 1577.6 584.067C1577.6 572.931 1588.27 567.965 1588.27 567.965Z" fill="#427982"/>
<path d="M1790.93 883.2C1782.4 885.334 1737.6 910.934 1737.6 910.934L1720.53 928L1692.8 949.334L1665.07 970.665H1622.4L1571.2 966.4C1571.2 966.4 1552 955.734 1507.2 932.265C1462.4 908.8 1456 925.865 1426.13 925.865C1396.27 925.865 1323.73 908.8 1323.73 908.8C1323.73 908.8 1289.6 896 1274.67 889.6C1259.73 883.2 1191.47 893.865 1191.47 893.865C1191.47 893.865 1106.13 919.465 1065.6 930.134C1025.07 940.8 1040 938.665 1020.8 938.665C1001.6 938.665 922.666 876.8 922.666 876.8C922.666 876.8 888.534 857.6 865.066 846.934C841.6 836.265 773.334 804.266 773.334 804.266L724.266 800L675.2 838.4L606.934 874.665L534.4 902.4L466.134 921.6L350.934 925.865C350.934 925.865 293.332 945.065 278.4 949.334C263.468 953.6 220.8 964.265 220.8 964.265C220.8 964.265 188.8 966.4 176 968.534C163.2 970.665 135.468 985.6 135.468 985.6C135.468 985.6 62.9325 1017.6 54.4 1021.86C45.8675 1026.13 0 1051.73 0 1051.73V1136H1920V822.934C1920 822.934 1867.73 851.2 1854.93 855.465C1842.13 859.734 1799.47 881.065 1790.93 883.2Z" fill="#192426"/>
<path d="M1907.05 857.379C1904.28 863.565 1896.47 877.524 1881.6 880C1862.4 883.2 1846.41 899.2 1846.41 899.2L1805.87 912C1805.87 912 1798.4 924.8 1794.08 941.961C1789.76 959.124 1728 968 1728 968L1697.07 1001.6H1721.6H1763.2C1763.2 1001.6 1792 995.2 1805.87 985.6C1819.73 976 1846.41 968 1846.41 968L1859.2 941.961L1908.27 928C1908.27 928 1920 899.2 1908.27 889.6C1898.97 881.994 1904.4 864.378 1907.05 857.379Z" fill="#4E888F"/>
<path d="M888 908.8C875.2 892.8 852.8 880 852.8 880L823.821 854.4C823.821 854.4 809.6 862.4 804.8 854.4C800 846.4 774.4 836.8 774.4 836.8C774.4 836.8 771.2 823.465 756.8 822.934C742.4 822.4 742.4 822.4 742.4 822.4L724.8 822.934L682.666 860.8L661.005 868.8C661.005 868.8 653.514 873.69 650.109 875.914C650.438 875.696 650.755 875.491 651.2 875.2C661.005 868.8 707.2 882.182 707.2 882.182C707.2 882.182 734.4 887.561 742.4 882.182C750.4 876.8 766.934 881.139 766.934 881.139L792 899.2L823.821 928C823.821 928 880 946.324 886.4 941.961C892.8 937.6 901.334 941.961 901.334 941.961C901.334 941.961 936 971.2 944 968C952 964.8 960 968 960 968L979.2 953.6L934.4 941.961C934.4 941.961 900.8 924.8 888 908.8Z" fill="#4E888F"/>
<path d="M1439.2 922.964L1428.24 909.696H1434.89L1425.24 892.121H1430.76L1422.66 874.893H1426.45L1417.27 848.643L1408.09 874.893H1411.88L1403.79 892.121H1409.3L1399.65 909.696H1406.3L1395.34 922.964H1409.96L1408.09 942.004H1417.27H1426.44L1424.57 922.964H1439.2" fill="#192426"/>
<path d="M1395.34 922.964L1384.38 909.696H1391.03L1381.39 892.121H1386.9L1378.8 874.893H1382.59L1373.41 848.643L1364.23 874.893H1368.02L1359.93 892.121H1365.44L1355.79 909.696H1362.44L1351.48 922.964H1366.1L1364.23 942.004H1373.41H1382.58L1380.71 922.964H1395.34" fill="#192426"/>
<path d="M1343.34 906.964L1332.38 893.696H1339.03L1329.39 876.121H1334.9L1326.8 858.893H1330.59L1321.41 832.643L1312.23 858.893H1316.02L1307.93 876.121H1313.44L1303.79 893.696H1310.44L1299.48 906.964H1314.1L1312.23 926.004H1321.41H1330.58L1328.71 906.964H1343.34" fill="#192426"/>
<path d="M1365.27 922.964L1354.31 909.696H1360.96L1351.32 892.121H1356.83L1348.73 874.893H1352.52L1343.34 848.643L1334.16 874.893H1337.95L1329.85 892.121H1335.37L1325.72 909.696H1332.37L1321.41 922.964H1336.03L1334.16 942.004H1343.34H1352.51L1350.64 922.964H1365.27" fill="#192426"/>
<path d="M1417.27 917.364L1406.31 904.096H1412.96L1403.32 886.521H1408.83L1400.73 869.292H1404.52L1395.34 843.043L1386.16 869.292H1389.95L1381.85 886.521H1387.37L1377.72 904.096H1384.37L1373.41 917.364H1388.03L1386.16 936.404H1395.34H1404.51L1402.64 917.364H1417.27" fill="#192426"/>
<path d="M1709.19 658.579L1701.66 649.459H1706.23L1699.6 637.379H1703.39L1697.82 625.533H1700.43L1694.12 607.491L1687.8 625.533H1690.41L1684.85 637.379H1688.64L1682 649.459H1686.58L1679.04 658.579H1689.09L1687.8 671.667H1694.12H1700.42L1699.13 658.579H1709.19" fill="#21393E"/>
<path d="M1684.96 626.49L1677.42 617.373H1682L1675.37 605.29H1679.16L1673.59 593.446H1676.2L1669.88 575.402L1663.57 593.446H1666.18L1660.61 605.29H1664.4L1657.77 617.373H1662.34L1654.81 626.49H1664.86L1663.57 639.578H1669.88H1676.19L1674.9 626.49H1684.96Z" fill="#21393E"/>
<path d="M1669.88 588.691L1662.35 579.568H1666.92L1660.29 567.491H1664.08L1658.51 555.648H1661.12L1654.81 537.6L1648.5 555.648H1651.1L1645.54 567.491H1649.33L1642.69 579.568H1647.27L1639.73 588.691H1649.79L1648.5 601.779H1654.81H1661.11L1659.83 588.691H1669.88Z" fill="#21393E"/>
<path d="M1654.81 556.602L1647.27 547.482H1651.85L1645.22 535.402H1649L1643.44 523.555H1646.04L1639.73 505.514L1633.42 523.555H1636.03L1630.46 535.402H1634.25L1627.62 547.482H1632.2L1624.66 556.602H1634.71L1633.42 569.687H1639.73H1646.04L1644.75 556.602H1654.81" fill="#21393E"/>
<path d="M1618.5 556.602L1610.97 547.482H1615.54L1608.91 535.402H1612.7L1607.13 523.555H1609.74L1603.42 505.514L1597.12 523.555H1599.72L1594.16 535.402H1597.94L1591.31 547.482H1595.89L1588.35 556.602H1598.4L1597.12 569.687H1603.42H1609.73L1608.44 556.602H1618.5" fill="#21393E"/>
<path d="M1596.8 528.867L1589.26 519.747H1593.84L1587.21 507.667H1591L1585.43 495.824H1588.04L1581.72 477.779L1575.41 495.824H1578.02L1572.45 507.667H1576.24L1569.61 519.747H1574.19L1566.65 528.867H1576.7L1575.41 541.955H1581.72H1588.03L1586.74 528.867H1596.8Z" fill="#21393E"/>
<path d="M1642.5 547.091L1634.97 537.968H1639.54L1632.91 525.891H1636.7L1631.13 514.048H1633.74L1627.43 496L1621.12 514.048H1623.72L1618.16 525.891H1621.95L1615.32 537.968H1619.89L1612.35 547.091H1622.4L1621.12 560.179H1627.43H1633.73L1632.45 547.091H1642.5" fill="#21393E"/>
<path d="M1629.64 547.091L1622.1 537.968H1626.68L1620.04 525.891H1623.83L1618.27 514.048H1620.87L1614.56 496L1608.25 514.048H1610.86L1605.29 525.891H1609.08L1602.45 537.968H1607.02L1599.48 547.091H1609.54L1608.25 560.179H1614.56H1620.86L1619.58 547.091H1629.64" fill="#21393E"/>
<path d="M1560.67 515.002L1553.13 505.882H1557.71L1551.07 493.802H1554.86L1549.3 481.955H1551.9L1545.59 463.91L1539.28 481.955H1541.89L1536.32 493.802H1540.11L1533.48 505.882H1538.05L1530.52 515.002H1540.57L1539.28 528.086H1545.59H1551.9L1550.61 515.002H1560.67" fill="#21393E"/>
<path d="M985.027 727.267L977.491 718.147H982.067L975.434 706.067H979.226L973.657 694.221H976.262L969.952 676.179L963.645 694.221H966.246L960.681 706.067H964.47L957.84 718.147H962.413L954.877 727.267H964.928L963.645 740.355H969.952H976.256L974.973 727.267H985.027" fill="#21393E"/>
<path d="M945.027 752.422L937.491 743.302H942.067L935.434 731.222H939.222L933.657 719.379H936.262L929.952 701.334L923.641 719.379H926.25L920.681 731.222H924.47L917.84 743.302H922.413L914.877 752.422H924.931L923.641 765.51H929.952H936.256L934.97 752.422H945.027Z" fill="#21393E"/>
<path d="M962.627 730.022L955.091 720.902H959.667L953.034 708.822H956.822L951.258 696.979H953.862L947.552 678.934L941.242 696.979H943.85L938.282 708.822H942.07L935.44 720.902H940.013L932.477 730.022H942.531L941.242 743.11H947.552H953.856L952.57 730.022H962.627Z" fill="#21393E"/>
<path d="M786.32 489.35L781.427 483.43H784.397L780.09 475.59H782.55L778.938 467.901H780.63L776.534 456.189L772.438 467.901H774.128L770.515 475.59H772.976L768.669 483.43H771.638L766.749 489.35H773.274L772.438 497.846H776.534H780.624L779.792 489.35H786.32" fill="#3C7982"/>
<path d="M800.467 480L795.574 474.08H798.544L794.24 466.24H796.701L793.085 458.554H794.778L790.682 446.842L786.586 458.554H788.278L784.666 466.24H787.126L782.819 474.08H785.789L780.896 480H787.421L786.586 488.496H790.682H794.774L793.939 480H800.467Z" fill="#3C7982"/>
<path d="M754.867 497.949L749.974 492.029H752.944L748.64 484.189H751.101L747.485 476.499H749.177L745.081 464.787L740.986 476.499H742.678L739.066 484.189H741.526L737.219 492.029H740.189L735.296 497.949H741.821L740.986 506.445H745.081H749.174L748.339 497.949H754.867Z" fill="#3C7982"/>
<path d="M708.202 497.949L703.309 492.029H706.278L701.974 484.189H704.432L700.819 476.499H702.512L698.416 464.787L694.32 476.499H696.01L692.397 484.189H694.858L690.554 492.029H693.523L688.63 497.949H695.155L694.32 506.445H698.416H702.506L701.67 497.949H708.202" fill="#3C7982"/>
<path d="M731.533 495.814L726.643 489.894H729.61L725.306 482.054H727.766L724.154 474.368H725.846L721.747 462.653L717.654 474.368H719.344L715.731 482.054H718.192L713.885 489.894H716.854L711.965 495.814H718.486L717.654 504.31H721.747H725.84L725.005 495.814H731.533" fill="#3C7982"/>
<path d="M821.433 466.56L816.544 460.64H819.513L815.206 452.8H817.667L814.054 445.114H815.747L811.651 433.402L807.555 445.114H809.245L805.632 452.8H808.093L803.789 460.64H806.755L801.865 466.56H808.39L807.555 475.056H811.651H815.741L814.909 466.56H821.433Z" fill="#3C7982"/>
<path d="M841.005 455.45L836.115 449.53H839.082L834.778 441.69H837.238L833.626 434H835.315L831.219 422.288L827.123 434H828.816L825.2 441.69H827.664L823.357 449.53H826.326L821.434 455.45H827.958L827.123 463.943H831.219H835.312L834.477 455.45H841.005" fill="#3C7982"/>
<path d="M810.253 473.392L805.36 467.472H808.33L804.026 459.629H806.483L802.87 451.942H804.563L800.467 440.23L796.371 451.942H798.064L794.448 459.629H796.909L792.602 467.472H795.574L790.682 473.392H797.206L796.371 481.885H800.467H804.557L803.725 473.392H810.253Z" fill="#3C7982"/>
<path d="M835.219 457.645L830.33 451.725H833.296L828.992 443.885H831.453L827.84 436.199H829.533L825.434 424.483L821.338 436.199H823.03L819.418 443.885H821.875L817.571 451.725H820.541L815.651 457.645H822.173L821.338 466.138H825.434H829.526L828.691 457.645H835.219Z" fill="#3C7982"/>
<path d="M793.181 487.21L788.288 481.29H791.258L786.954 473.45H789.411L785.802 465.76H787.491L783.395 454.048L779.299 465.76H780.992L777.376 473.45H779.837L775.533 481.29H778.502L773.61 487.21H780.134L779.299 495.702H783.395H787.485L786.653 487.21H793.181" fill="#3C7982"/>
<path d="M769.542 487.123L764.653 481.203H767.622L763.318 473.363H765.776L762.163 465.674H763.856L759.76 453.962L755.664 465.674H757.354L753.741 473.363H756.202L751.894 481.203H754.867L749.974 487.123H756.499L755.664 495.616H759.76H763.85L763.014 487.123H769.542" fill="#3C7982"/>
<path d="M771.133 497.104L766.243 491.187H769.21L764.906 483.344H767.366L763.754 475.658H765.446L761.347 463.942L757.254 475.658H758.944L755.331 483.344H757.792L753.485 491.187H756.454L751.565 497.104H758.086L757.254 505.6H761.347H765.44L764.605 497.104H771.133" fill="#3C7982"/>
<path d="M738.87 501.485L733.981 495.565H736.95L732.646 487.725H735.104L731.491 480.038H733.184L729.088 468.326L724.992 480.038H726.682L723.069 487.725H725.53L721.226 495.565H724.195L719.302 501.485H725.827L724.992 509.981H729.088H733.178L732.342 501.485H738.87" fill="#3C7982"/>
<path d="M766.934 491.872L762.045 485.955H765.014L760.707 478.112H763.168L759.555 470.426H761.248L757.149 458.714L753.056 470.426H754.746L751.133 478.112H753.594L749.286 485.955H752.256L747.366 491.872H753.891L753.056 500.368H757.149H761.242L760.406 491.872H766.934Z" fill="#3C7982"/>
<path d="M783.894 487.123L779.005 481.203H781.974L777.667 473.363H780.131L776.515 465.674H778.205L774.112 453.962L770.016 465.674H771.706L768.093 473.363H770.554L766.25 481.203H769.216L764.326 487.123H770.851L770.016 495.616H774.112H778.202L777.37 487.123H783.894" fill="#3C7982"/>
<path d="M719.302 500.829L714.41 494.909H717.382L713.075 487.069H715.536L711.923 479.382H713.613L709.517 467.667L705.421 479.382H707.114L703.501 487.069H705.958L701.654 494.909H704.624L699.734 500.829H706.259L705.421 509.325H709.517H713.61L712.774 500.829H719.302" fill="#3C7982"/>
<path d="M914.877 784.512L907.341 775.392H911.917L905.283 763.312H909.075L903.507 751.469H906.115L899.801 733.421L893.491 751.469H896.099L890.531 763.312H894.323L887.689 775.392H892.266L884.729 784.512H894.781L893.491 797.6H899.801H906.106L904.819 784.512H914.877" fill="#21393E"/>
<path d="M929.952 759.357L922.416 750.237H926.992L920.358 738.157H924.15L918.582 726.314H921.187L914.877 708.266L908.566 726.314H911.174L905.606 738.157H909.398L902.765 750.237H907.338L899.802 759.357H909.856L908.566 772.445H914.877H921.181L919.894 759.357H929.952" fill="#21393E"/>
<path d="M217.731 717.312L210.195 708.195H214.77L208.138 696.112H211.926L206.361 684.269H208.966L202.656 666.221L196.345 684.269H198.951L193.384 696.112H197.175L190.542 708.195H195.115L187.581 717.312H197.633L196.345 730.4H202.656H208.959L207.674 717.312H217.731" fill="#21393E"/>
<path d="M170.575 767.622L163.041 758.502H167.614L160.982 746.422H164.771L159.205 734.579H161.811L155.5 716.534L149.191 734.579H151.795L146.23 746.422H150.019L143.386 758.502H147.961L140.425 767.622H150.476L149.191 780.71H155.5H161.805L160.519 767.622H170.575" fill="#21393E"/>
<path d="M153.811 773.222L146.275 764.102H150.85L144.218 752.022H148.007L142.441 740.179H145.046L138.736 722.134L132.425 740.179H135.031L129.464 752.022H133.255L126.621 764.102H131.196L123.661 773.222H133.713L132.425 786.31H138.736H145.039L143.754 773.222H153.811" fill="#21393E"/>
<path d="M240.211 679.622L232.675 670.502H237.25L230.618 658.422H234.407L228.841 646.579H231.446L225.136 628.534L218.825 646.579H221.431L215.864 658.422H219.655L213.021 670.502H217.596L210.061 679.622H220.113L218.825 692.71H225.136H231.439L230.154 679.622H240.211" fill="#21393E"/>
<path d="M190.262 735.533L182.727 726.416H187.301L180.67 714.333H184.46L178.894 702.49H181.499L175.188 684.445L168.877 702.49H171.483L165.917 714.333H169.706L163.075 726.416H167.649L160.114 735.533H170.164L168.877 748.621H175.188H181.493L180.206 735.533H190.262Z" fill="#21393E"/>
<path d="M138.736 792.589L131.2 783.466H135.775L129.142 771.386H132.932L127.366 759.539H129.971L123.661 741.498L117.35 759.539H119.956L114.389 771.386H118.18L111.547 783.466H116.122L108.586 792.589H118.637L117.35 805.674H123.661H129.964L128.677 792.589H138.736" fill="#21393E"/>
<path d="M105.136 807.949L97.6 798.829H102.175L95.5424 786.749H99.3324L93.7664 774.902H96.3712L90.0611 756.861L83.75 774.902H86.3561L80.7888 786.749H84.5801L77.9475 798.829H82.5225L74.9862 807.949H85.0374L83.75 821.036H90.0611H96.3638L95.0774 807.949H105.136" fill="#21393E"/>
<path d="M1027.48 685.222L1019.95 676.102H1024.52L1017.89 664.022H1021.68L1016.11 652.179H1018.72L1012.41 634.134L1006.1 652.179H1008.7L1003.14 664.022H1006.93L1000.29 676.102H1004.87L997.334 685.222H1007.39L1006.1 698.31H1012.41H1018.71L1017.42 685.222H1027.48Z" fill="#21393E"/>
<path d="M1002.42 708.691L994.88 699.568H999.456L992.822 687.491H996.611L991.046 675.648H993.654L987.341 657.6L981.03 675.648H983.638L978.067 687.491H981.859L975.229 699.568H979.802L972.266 708.691H982.32L981.03 721.779H987.341H993.645L992.358 708.691H1002.42Z" fill="#21393E"/>
<path d="M1694.97 638.467L1687.43 629.347H1692.01L1685.37 617.267H1689.16L1683.6 605.421H1686.2L1679.89 587.379L1673.58 605.421H1676.19L1670.62 617.267H1674.41L1667.78 629.347H1672.35L1664.82 638.467H1674.87L1673.58 651.555H1679.89H1686.2L1684.91 638.467H1694.97" fill="#21393E"/>
<path d="M1581.72 515.002L1574.19 505.882H1578.76L1572.13 493.802H1575.92L1570.35 481.955H1572.96L1566.65 463.91L1560.34 481.955H1562.94L1557.38 493.802H1561.17L1554.53 505.882H1559.11L1551.57 515.002H1561.63L1560.34 528.086H1566.65H1572.95L1571.67 515.002H1581.72" fill="#21393E"/>
<path d="M1434.97 362.154L1430.87 357.194H1433.35L1429.74 350.618H1431.8L1428.78 344.176H1430.2L1426.76 334.355L1423.33 344.176H1424.75L1421.72 350.618H1423.78L1420.17 357.194H1422.66L1418.56 362.154H1424.03L1423.33 369.274H1426.76H1430.19L1429.49 362.154H1434.97" fill="#50A1AB"/>
<path d="M1413.38 344.694L1409.27 339.734H1411.77L1408.16 333.159H1410.22L1407.19 326.717H1408.6L1405.17 316.896L1401.74 326.717H1403.16L1400.13 333.159H1402.19L1398.58 339.734H1401.07L1396.97 344.694H1402.44L1401.74 351.814H1405.17H1408.6L1407.9 344.694H1413.38Z" fill="#50A1AB"/>
<path d="M1393.67 340.653L1389.57 335.69H1392.06L1388.45 329.117H1390.51L1387.48 322.672H1388.9L1385.47 312.854L1382.04 322.672H1383.45L1380.42 329.117H1382.48L1378.88 335.69H1381.37L1377.27 340.653H1382.73L1382.04 347.773H1385.47H1388.9L1388.2 340.653H1393.67" fill="#50A1AB"/>
<path d="M1387.43 323.194L1383.33 318.23H1385.82L1382.21 311.658H1384.28L1381.25 305.213H1382.67L1379.24 295.395L1375.8 305.213H1377.22L1374.19 311.658H1376.25L1372.64 318.23H1375.13L1371.03 323.194H1376.5L1375.8 330.314H1379.24H1382.66L1381.96 323.194H1387.43Z" fill="#50A1AB"/>
<path d="M1408.41 347.405L1404.31 342.445H1406.79L1403.19 335.869H1405.25L1402.22 329.424H1403.64L1400.2 319.607L1396.77 329.424H1398.19L1395.16 335.869H1397.22L1393.61 342.445H1396.1L1392 347.405H1397.47L1396.77 354.528H1400.2H1403.64L1402.93 347.405H1408.41" fill="#50A1AB"/>
<path d="M1453.05 375.296L1448.95 370.333H1451.44L1447.83 363.763H1449.89L1446.86 357.318H1448.28L1444.85 347.498L1441.41 357.318H1442.83L1439.8 363.763H1441.87L1438.26 370.333H1440.75L1436.64 375.296H1442.12L1441.41 382.419H1444.85H1448.28L1447.58 375.296H1453.05" fill="#50A1AB"/>
<path d="M1426.76 364.08L1422.66 359.12H1425.15L1421.54 352.547H1423.6L1420.58 346.102H1421.99L1418.56 336.282L1415.13 346.102H1416.54L1413.52 352.547H1415.58L1411.97 359.12H1414.46L1410.35 364.08H1415.83L1415.13 371.203H1418.56H1421.99L1421.29 364.08H1426.76" fill="#50A1AB"/>
<path d="M1401.87 342.586L1397.77 337.622H1400.26L1396.65 331.05H1398.72L1395.69 324.605H1397.1L1393.67 314.787L1390.24 324.605H1391.65L1388.62 331.05H1390.69L1387.08 337.622H1389.57L1385.47 342.586H1390.94L1390.24 349.706H1393.67H1397.1L1396.4 342.586H1401.87Z" fill="#50A1AB"/>
<path d="M1372.98 309.776L1368.87 304.813H1371.37L1367.76 298.24H1369.82L1366.79 291.795H1368.2L1364.77 281.978L1361.34 291.795H1362.76L1359.73 298.24H1361.79L1358.18 304.813H1360.67L1356.57 309.776H1362.04L1361.34 316.896H1364.77H1368.2L1367.5 309.776H1372.98Z" fill="#50A1AB"/>
<path d="M1359.02 298.518L1354.92 293.558H1357.4L1353.8 286.986H1355.86L1352.83 280.538H1354.25L1350.82 270.72L1347.38 280.538H1348.8L1345.77 286.986H1347.83L1344.22 293.558H1346.71L1342.61 298.518H1348.08L1347.38 305.642H1350.82H1354.25L1353.55 298.518H1359.02" fill="#50A1AB"/>
<path d="M1343.77 289.898L1339.67 284.934H1342.16L1338.55 278.362H1340.61L1337.58 271.917H1339L1335.57 262.099L1332.13 271.917H1333.55L1330.52 278.362H1332.59L1328.98 284.934H1331.47L1327.37 289.898H1332.84L1332.13 297.018H1335.57H1339L1338.3 289.898H1343.77" fill="#50A1AB"/>
<path d="M1350.82 284.493L1346.72 279.533H1349.21L1345.6 272.957H1347.67L1344.63 266.515H1346.05L1342.62 256.694L1339.19 266.515H1340.6L1337.57 272.957H1339.64L1336.03 279.533H1338.52L1334.42 284.493H1339.89L1339.19 291.613H1342.62H1346.05L1345.35 284.493H1350.82Z" fill="#50A1AB"/>
<path d="M635.686 313.939L631.587 308.976H634.077L630.467 302.403H632.531L629.501 295.959H630.918L627.485 286.141L624.051 295.959H625.469L622.442 302.403H624.502L620.893 308.976H623.382L619.283 313.939H624.752L624.051 321.059H627.485H630.915L630.214 313.939H635.686Z" fill="#50A1AB"/>
<path d="M616.854 293.651L612.755 288.688H615.245L611.635 282.115H613.696L610.666 275.67H612.086L608.653 265.853L605.219 275.67H606.637L603.606 282.115H605.667L602.061 288.688H604.55L600.451 293.651H605.92L605.219 300.771H608.653H612.08L611.382 293.651H616.854Z" fill="#50A1AB"/>
<path d="M604.32 310.077L600.218 305.117H602.707L599.098 298.541H601.162L598.131 292.099H599.549L596.115 282.279L592.682 292.099H594.099L591.072 298.541H593.133L589.526 305.117H592.013L587.914 310.077H593.382L592.682 317.2H596.115H599.546L598.848 310.077H604.32Z" fill="#50A1AB"/>
<path d="M585.597 280.877L581.498 275.917H583.987L580.378 269.341H582.438L579.411 262.899H580.829L577.395 253.078L573.962 262.899H575.379L572.349 269.341H574.413L570.803 275.917H573.293L569.194 280.877H574.662L573.962 288H577.395H580.826L580.125 280.877H585.597Z" fill="#50A1AB"/>
<path d="M616.854 312.518L612.755 307.555H615.245L611.635 300.982H613.696L610.666 294.538H612.086L608.653 284.72L605.219 294.538H606.637L603.606 300.982H605.667L602.061 307.555H604.55L600.451 312.518H605.92L605.219 319.638H608.653H612.08L611.382 312.518H616.854Z" fill="#50A1AB"/>
<path d="M627.485 308.285L623.386 303.322H625.872L622.266 296.749H624.326L621.299 290.304H622.717L619.283 280.486L615.85 290.304H617.267L614.237 296.749H616.301L612.691 303.322H615.181L611.078 308.285H616.55L615.85 315.405H619.283H622.714L622.013 308.285H627.485Z" fill="#50A1AB"/>
<path d="M612.736 303.178L608.637 298.214H611.126L607.52 291.642H609.581L606.55 285.197H607.968L604.534 275.379L601.101 285.197H602.522L599.491 291.642H601.552L597.942 298.214H600.432L596.333 303.178H601.802L601.101 310.298H604.534H607.965L607.267 303.178H612.736Z" fill="#50A1AB"/>
<path d="M597.885 290.403L593.786 285.44H596.275L592.666 278.867H594.73L591.699 272.422H593.117L589.683 262.605L586.25 272.422H587.667L584.64 278.867H586.701L583.091 285.44H585.581L581.482 290.403H586.95L586.25 297.523H589.683H593.114L592.413 290.403H597.885" fill="#50A1AB"/>
<path d="M571.184 268.262L567.082 263.299H569.571L565.962 256.726H568.026L564.995 250.282H566.413L562.979 240.464L559.546 250.282H560.963L557.936 256.726H560L556.39 263.299H558.877L554.778 268.262H560.246L559.546 275.382H562.979H566.41L565.712 268.262H571.184Z" fill="#50A1AB"/>
<path d="M553.946 244.666L549.846 239.706H552.336L548.726 233.133H550.79L547.76 226.685H549.178L545.744 216.867L542.31 226.685H543.731L540.701 233.133H542.762L539.152 239.706H541.642L537.542 244.666H543.011L542.31 251.789H545.744H549.174L548.474 244.666H553.946Z" fill="#50A1AB"/>
<path d="M650.291 323.107L646.192 318.144H648.682L645.072 311.571H647.133L644.106 305.126H645.523L642.09 295.309L638.656 305.126H640.074L637.046 311.571H639.107L635.498 318.144H637.987L633.888 323.107H639.357L638.656 330.227H642.09H645.52L644.819 323.107H650.291Z" fill="#50A1AB"/>
<path d="M563.203 259.875L559.104 254.912H561.594L557.984 248.339H560.048L557.018 241.894H558.435L555.002 232.077L551.568 241.894H552.986L549.958 248.339H552.019L548.41 254.912H550.899L546.8 259.875H552.269L551.568 266.995H555.002H558.432L557.731 259.875H563.203Z" fill="#50A1AB"/>
<path d="M1478.24 910.451L1467.27 897.184H1473.93L1464.28 879.61H1469.79L1461.7 862.381H1465.49L1456.31 836.127L1447.13 862.381H1450.92L1442.82 879.61H1448.33L1438.68 897.184H1445.34L1434.38 910.451H1449L1447.13 929.491H1456.31H1465.48L1463.61 910.451H1478.24" fill="#192426"/>
<path d="M1456.31 910.451L1445.34 897.184H1452L1442.35 879.61H1447.87L1439.77 862.381H1443.55L1434.38 836.127L1425.2 862.381H1428.99L1420.89 879.61H1426.4L1416.75 897.184H1423.41L1412.45 910.451H1427.07L1425.2 929.491H1434.38H1443.55L1441.68 910.451H1456.31" fill="#192426"/>
<path d="M1315.11 896.724L1304.15 883.452H1310.81L1301.16 865.881H1306.67L1298.57 848.65H1302.36L1293.18 822.4L1284 848.65H1287.8L1279.7 865.881H1285.21L1275.56 883.452H1282.21L1271.25 896.724H1285.88L1284 915.76H1293.18H1302.35L1300.48 896.724H1315.11" fill="#192426"/>
<path d="M277.586 969.645L266.624 956.378H273.277L263.63 938.804H269.142L261.045 921.571H264.836L255.656 895.321L246.476 921.571H250.265L242.169 938.804H247.681L238.033 956.378H244.687L233.726 969.645H248.349L246.476 988.681H255.656H264.825L262.955 969.645H277.586Z" fill="#192426"/>
<path d="M333.187 935.245L322.224 921.978H328.877L319.23 904.404H324.742L316.645 887.171H320.435L311.256 860.921L302.076 887.171H305.865L297.769 904.404H303.281L293.633 921.978H300.287L289.326 935.245H303.949L302.076 954.281H311.256H320.426L318.555 935.245H333.187" fill="#192426"/>
<path d="M303.186 948.964L292.224 935.692H298.877L289.23 918.121H294.742L286.645 900.89H290.436L281.256 874.64L272.076 900.89H275.865L267.769 918.121H273.281L263.633 935.692H270.287L259.326 948.964H273.949L272.076 968H281.256H290.425L288.555 948.964H303.186Z" fill="#192426"/>
<path d="M233.726 956.564L222.764 943.293H229.419L219.77 925.721H225.283L217.186 908.49H220.976L211.796 882.24L202.618 908.49H206.406L198.31 925.721H203.821L194.174 943.293H200.829L189.868 956.564H204.489L202.618 975.6H211.796H220.966L219.095 956.564H233.726Z" fill="#192426"/>
<path d="M186.526 978.564L175.564 965.293H182.219L172.57 947.721H178.083L169.986 930.49H173.776L164.596 904.24L155.418 930.49H159.206L151.11 947.721H156.621L146.974 965.293H153.629L142.667 978.564H157.289L155.418 997.6H164.596H173.766L171.895 978.564H186.526" fill="#192426"/>
<path d="M259.856 951.364L248.894 938.093H255.549L245.9 920.521H251.412L243.315 903.29H247.106L237.926 877.04L228.747 903.29H232.536L224.439 920.521H229.951L220.302 938.093H226.957L215.996 951.364H230.619L228.747 970.4H237.926H247.095L245.225 951.364H259.856" fill="#192426"/>
<path d="M202.656 967.364L191.694 954.093H198.349L188.7 936.521H194.212L186.115 919.29H189.906L180.726 893.04L171.547 919.29H175.336L167.239 936.521H172.751L163.102 954.093H169.757L158.796 967.364H173.419L171.547 986.4H180.726H189.895L188.025 967.364H202.656" fill="#192426"/>
<path d="M218.256 956.564L207.294 943.293H213.949L204.3 925.721H209.812L201.715 908.49H205.506L196.326 882.24L187.147 908.49H190.936L182.839 925.721H188.351L178.702 943.293H185.357L174.396 956.564H189.019L187.147 975.6H196.326H205.495L203.625 956.564H218.256" fill="#192426"/>
<path d="M149.456 991.764L138.494 978.493H145.149L135.5 960.921H141.013L132.915 943.69H136.706L127.526 917.44L118.348 943.69H122.136L114.039 960.921H119.551L109.902 978.493H116.557L105.596 991.764H120.219L118.348 1010.8H127.526H136.695L134.825 991.764H149.456" fill="#192426"/>
<path d="M1288.71 906.964L1277.75 893.696H1284.41L1274.76 876.121H1280.27L1272.17 858.893H1275.96L1266.78 832.643L1257.6 858.893H1261.4L1253.3 876.121H1258.81L1249.16 893.696H1255.81L1244.85 906.964H1259.48L1257.6 926.004H1266.78H1275.95L1274.08 906.964H1288.71" fill="#192426"/>
<path d="M1266.78 896.724L1255.82 883.452H1262.47L1252.83 865.881H1258.34L1250.24 848.65H1254.04L1244.85 822.4L1235.67 848.65H1239.47L1231.37 865.881H1236.88L1227.23 883.452H1233.89L1222.92 896.724H1237.55L1235.67 915.76H1244.85H1254.02L1252.15 896.724H1266.78" fill="#192426"/>
<path d="M1500.17 935.124L1489.2 921.853H1495.86L1486.21 904.281H1491.72L1483.63 887.05H1487.41L1478.24 860.8L1469.06 887.05H1472.85L1464.75 904.281H1470.26L1460.61 921.853H1467.27L1456.31 935.124H1470.93L1469.06 954.16H1478.24H1487.4L1485.54 935.124H1500.17" fill="#192426"/>
<path d="M1239.37 910.451L1228.4 897.184H1235.06L1225.41 879.61H1230.92L1222.83 862.381H1226.61L1217.44 836.127L1208.26 862.381H1212.05L1203.95 879.61H1209.46L1199.81 897.184H1206.47L1195.51 910.451H1210.13L1208.26 929.491H1217.44H1226.6L1224.74 910.451H1239.37Z" fill="#192426"/>
<path d="M978 7.72408e-06C860.363 7.72408e-06 765 95.1374 765 212.503C765 329.863 860.363 425 978 425C1095.64 425 1191 329.863 1191 212.503C1191 95.1374 1095.64 7.72408e-06 978 7.72408e-06Z" fill="#254548"/>
<path d="M979 59C893.395 59 824 128.17 824 213.502C824 298.83 893.395 368 979 368C1064.6 368 1134 298.83 1134 213.502C1134 128.17 1064.6 59 979 59Z" fill="#28585C"/>
<path d="M977.837 108.583C920.63 108.583 874.256 154.957 874.256 212.167C874.256 269.373 920.63 315.747 977.837 315.747C1035.04 315.747 1081.42 269.373 1081.42 212.167C1081.42 154.957 1035.04 108.583 977.837 108.583Z" fill="#C1EBF1"/>
</svg>
